Coordinates
version=1
nRows=10
nColumns=46
inDegrees=yes

Units are S.I. units (second, meters, Newtons, ...)
Angles are in degrees.

endheader
time	pelvis_tilt	pelvis_list	pelvis_rotation	pelvis_tx	pelvis_ty	pelvis_tz	bb_angle	bb_tx	bb_ty	bb_tz	hip_flexion_r	hip_adduction_r	hip_rotation_r	knee_angle_r	knee_angle_r_beta	ankle_angle_r	subtalar_angle_r	mtp_angle_r	crank_angle_r	hip_flexion_l	hip_adduction_l	hip_rotation_l	knee_angle_l	knee_angle_l_beta	ankle_angle_l	subtalar_angle_l	mtp_angle_l	crank_angle_l	lumbar_extension	lumbar_bending	lumbar_rotation	arm_flex_r	arm_add_r	arm_rot_r	elbow_flex_r	pro_sup_r	wrist_flex_r	wrist_dev_r	arm_flex_l	arm_add_l	arm_rot_l	elbow_flex_l	pro_sup_l	wrist_flex_l	wrist_dev_l
      0.00000000	    -12.60143436	     -4.88857177	      1.52436146	      0.05072893	      1.09860706	     -0.27803835	      0.00000000	      0.50000000	      0.00000000	      0.25000000	     79.58318482	     -4.04582216	     -2.56830726	     89.26845392	      1.55802844	     12.80341304	     -7.58225102	      0.00000000	      0.00000000	     45.62801967	    -11.27445584	     -0.77760851	     65.73844470	      1.14735231	      9.78780085	     -0.76205806	      0.00000000	      0.00000000	    -51.44220135	      2.36981165	      4.70030105	     89.44590705	    -12.94328028	     38.93250281	     29.44523026	     24.67914793	      0.00000000	      0.00000000	     89.34375612	     -9.61178358	     38.04004635	     33.25531184	     25.46231344	      0.00000000	      0.00000000
      0.00500000	    -12.63214242	     -4.93608470	      1.51654755	      0.05070066	      1.09856071	     -0.27802254	      0.00000000	      0.50000000	      0.00000000	      0.25000000	     79.62807527	     -4.01098579	     -2.58769527	     89.30525186	      1.55867068	     12.81818692	     -7.60823648	      0.00000000	      0.00000000	     45.65000169	    -11.31663543	     -0.75809767	     65.68282198	      1.14638151	      9.77563663	     -0.75595021	      0.00000000	      0.00000000	    -51.41189482	      2.37817207	      4.80488994	     89.43340163	    -12.85612860	     37.97308739	     29.08997665	     26.55020223	      0.00000000	      0.00000000	     89.35107620	     -9.30859194	     37.40339221	     32.66768422	     27.29009306	      0.00000000	      0.00000000
      0.01000000	    -12.64122425	     -4.91727621	      1.49515579	      0.05072044	      1.09857263	     -0.27803793	      0.00000000	      0.50000000	      0.00000000	      0.25000000	     79.66160052	     -4.00296458	     -2.55908783	     89.35766557	      1.55958548	     12.85002273	     -7.58809639	      0.00000000	      0.00000000	     45.61900085	    -11.31241808	     -0.80196874	     65.60882048	      1.14508994	      9.76536207	     -0.74767545	      0.00000000	      0.00000000	    -51.41019788	      2.37379889	      4.83259293	     89.43061285	    -12.82740999	     37.80720068	     28.95905473	     27.08846985	      0.00000000	      0.00000000	     89.34998866	     -9.29951968	     37.35095753	     32.50168008	     27.87452068	      0.00000000	      0.00000000
      0.01500000	    -12.65693485	     -4.97939529	      1.56314746	      0.05066411	      1.09852891	     -0.27799908	      0.00000000	      0.50000000	      0.00000000	      0.25000000	     79.68921840	     -4.04667615	     -2.64706348	     89.41924497	      1.56066024	     12.91470932	     -7.57941553	      0.00000000	      0.00000000	     45.65996363	    -11.26650375	     -0.60289168	     65.57749572	      1.14454322	      9.71902312	     -0.75608755	      0.00000000	      0.00000000	    -51.39100359	      2.46337561	      4.81786251	     89.43295156	    -12.81200989	     37.96896835	     28.79941718	     27.73295843	      0.00000000	      0.00000000	     89.34110274	     -9.41112587	     37.40790741	     32.48626757	     28.57399250	      0.00000000	      0.00000000
      0.02000000	    -12.39298039	     -5.01492527	      1.62101858	      0.05068943	      1.09920324	     -0.27814180	      0.00000000	      0.50000000	      0.00000000	      0.25000000	     79.38766208	     -4.10318522	     -2.73002646	     89.46945186	      1.56153651	     13.01393774	     -7.64281962	      0.00000000	      0.00000000	     45.30519398	    -11.27893899	     -0.59612000	     65.40801174	      1.14158516	      9.77198700	     -0.71936186	      0.00000000	      0.00000000	    -51.78705876	      2.53159627	      4.80728006	     89.42391907	    -12.87899791	     37.01601947	     29.42093809	     28.71010245	      0.00000000	      0.00000000	     89.31839986	     -9.48944593	     36.56971206	     33.06624217	     29.54340730	      0.00000000	      0.00000000
      0.02500000	    -12.63992514	     -4.96962317	      1.53925082	      0.05069865	      1.09875293	     -0.27799933	      0.00000000	      0.50000000	      0.00000000	      0.25000000	     79.71753022	     -4.05477235	     -2.63777178	     89.52254329	      1.56246314	     12.96248767	     -7.58387115	      0.00000000	      0.00000000	     45.54989286	    -11.27811761	     -0.67386233	     65.38700660	      1.14121855	      9.69245514	     -0.75257776	      0.00000000	      0.00000000	    -51.41373283	      2.44974886	      4.80411497	     89.43667290	    -12.69631218	     37.34419880	     28.50055056	     29.46933095	      0.00000000	      0.00000000	     89.34801963	     -9.34337138	     37.04440314	     32.12569461	     30.33283595	      0.00000000	      0.00000000
      0.03000000	    -12.41598458	     -5.05772557	      1.58203365	      0.05073245	      1.09922097	     -0.27812495	      0.00000000	      0.50000000	      0.00000000	      0.25000000	     79.45756910	     -4.08155625	     -2.77277403	     89.55120817	      1.56296343	     13.00801851	     -7.60408378	      0.00000000	      0.00000000	     45.27416605	    -11.34704524	     -0.61581976	     65.27508164	      1.13926509	      9.75066709	     -0.59086224	      0.00000000	      0.00000000	    -51.75238821	      2.55195851	      4.88839173	     89.43383013	    -12.75177012	     36.58636517	     28.85971231	     30.50663132	      0.00000000	      0.00000000	     89.33230254	     -9.36558822	     36.42511015	     32.43963306	     31.36292370	      0.00000000	      0.00000000
      0.03500000	    -12.46048622	     -5.01635640	      1.53001568	      0.05073001	      1.09908819	     -0.27800784	      0.00000000	      0.50000000	      0.00000000	      0.25000000	     79.55715592	     -4.03483329	     -2.70399698	     89.62410417	      1.56423571	     13.00388977	     -7.59891073	      0.00000000	      0.00000000	     45.28729435	    -11.34986798	     -0.69091753	     65.23462592	      1.13855901	      9.76431230	     -0.59488661	      0.00000000	      0.00000000	    -51.66789817	      2.48597948	      4.91150983	     89.43407472	    -12.69517541	     36.45697395	     28.54014925	     31.22276274	      0.00000000	      0.00000000	     89.33641324	     -9.31078569	     36.40380358	     32.09649443	     32.08959488	      0.00000000	      0.00000000
      0.04000000	    -12.49490413	     -5.02632492	      1.53282544	      0.05069896	      1.09906848	     -0.27806312	      0.00000000	      0.50000000	      0.00000000	      0.25000000	     79.61277754	     -4.03706776	     -2.70324323	     89.67644152	      1.56514917	     13.02421398	     -7.62486344	      0.00000000	      0.00000000	     45.29702293	    -11.32677260	     -0.66285415	     65.15714374	      1.13720669	      9.73214252	     -0.70015006	      0.00000000	      0.00000000	    -51.63991338	      2.50227120	      4.87827044	     89.43447677	    -12.69351958	     36.48391535	     28.53166910	     31.56048871	      0.00000000	      0.00000000	     89.33971041	     -9.38790075	     36.41596496	     32.11738646	     32.45263530	      0.00000000	      0.00000000
      0.04500000	    -12.49711104	     -4.95571572	      1.42702716	      0.05078219	      1.09909665	     -0.27789594	      0.00000000	      0.50000000	      0.00000000	      0.25000000	     79.66283191	     -3.94483013	     -2.59101285	     89.74219154	      1.56629672	     13.02747242	     -7.58947345	      0.00000000	      0.00000000	     45.21338419	    -11.37207399	     -0.84855150	     65.07115152	      1.13570584	      9.74336609	     -0.61196534	      0.00000000	      0.00000000	    -51.64032566	      2.35594126	      4.88577617	     89.43395388	    -12.68851787	     36.28405992	     28.39892664	     32.14777506	      0.00000000	      0.00000000	     89.34057382	     -9.35344804	     36.30272513	     31.96210888	     33.05218665	      0.00000000	      0.00000000
